<svg xmlns="http://www.w3.org/2000/svg" viewBox="0 0 182.79 106.55" class="header-logo-svg"><defs><style>.cls-1{fill:#fff}</style></defs><title>Asset 1</title><g id="Layer_2" data-name="Layer 2"><g id="Layer_1-2" data-name="Layer 1"><path class="cls-1" d="M17.01 79.45H169v1.13H17.01zM27.82 87.78v.4c.63 0 1.66.2 1.66 1.23v11.19c0 3-1.83 4.52-4.18 4.52s-4.14-1.49-4.14-4.52V89.41c0-1 1-1.2 1.66-1.23v-.4c-.89 0-1.81.18-3.27.18-.77 0-1.65-.18-2.54-.18v.4c1.17.12 1.34.2 1.34 1.46v10.41c0 4.44 2.58 6.5 7 6.5s7-2.06 7-6.5V89.64c0-1.26.18-1.34 1.35-1.46v-.4c-.89 0-1.78.18-2.55.18-1.53.04-2.44-.18-3.33-.18zM47.94 87.78v.4c1.54.26 2 .69 2 2.61v10.35h-.06l-9.72-13.36c-.72 0-1.35.18-2.12.18s-1.63-.18-2.43-.18v.4c1.11.18 1.46.41 1.46 1.2v15.28c0 .8-.35 1-1.46 1.2v.4c.94 0 1.89-.17 2.83-.17s1.6.17 2.4.17v-.4c-1.54-.26-2-.69-2-2.61V90.93h.06L50 106.26h1.69V89.38c0-.79.34-1 1.46-1.2v-.4c-1 0-1.89.18-2.83.18s-1.58-.18-2.38-.18zM56 87.78v.4c1.11.18 1.45.41 1.45 1.2v15.28c0 .8-.34 1-1.45 1.2v.4c.6 0 1.77-.17 2.86-.17s2.26.17 2.86.17v-.4c-1.12-.17-1.46-.4-1.46-1.2V89.38c0-.79.34-1 1.46-1.2v-.4c-.6 0-1.78.18-2.86.18s-2.29-.18-2.86-.18zM75.09 87.78v.4c.58.12 1.35.29 1.35.86a6.65 6.65 0 0 1-.37 1.6L72 102.94l-4.58-12.7A4.94 4.94 0 0 1 67 89c0-.54.37-.8 1.45-.83v-.4c-.85 0-1.65.18-2.48.18-1.15 0-2.32-.18-3.46-.18v.4a1.73 1.73 0 0 1 1.77 1.29l6.29 16.79h1.92l5.6-16.53a2 2 0 0 1 1.72-1.55v-.4c-.72 0-1.43.18-2.14.18-.83.05-1.67-.17-2.58-.17zM91 104.49h-6.11v-7.21H89c1 0 1.6.08 1.8 1.66h.57a24.76 24.76 0 0 1-.17-2.49c0-.83.09-1.6.17-2.43h-.57c-.2 1.57-.77 1.66-1.8 1.66h-4.11v-6.12h6.55c1.25 0 2.23.34 2.57 2.63h.57c-.11-1.4-.17-2.83-.17-4.23H80.62v.4c1.12.17 1.46.39 1.46 1.2v14.93c0 .8-.34 1-1.46 1.2v.4h14.53c0-1.57.15-3.12.29-4.69h-.54c-.52 2.6-1.55 3.09-3.9 3.09zM111.74 104l-5.27-6.8c2.75-.23 5.21-2 5.21-4.87 0-2.37-1.34-4.34-5.15-4.34h-8.29v.4c1.11.17 1.46.39 1.46 1.2v15.1c0 .8-.35 1-1.46 1.2v.4c.6 0 1.77-.17 2.86-.17s2.26.17 2.86.17v-.4c-1.12-.17-1.46-.4-1.46-1.2V89.56h1.5c2.41 0 4.84.4 4.84 3.12 0 2.51-2.09 3.74-5.07 3.74-.22 0-.54.11-.54.28s.23.38.57.84l3.69 4.94c2.32 3.23 2.61 3.69 2.92 3.78.72 0 1.46-.17 2.2-.17.49 0 1 .17 1.49.17v-.4c-.79-.08-1.5-.8-2.36-1.86zM122.66 95.45c-3.52-.72-4.63-1-4.63-3.09 0-1.8 1.56-3.26 4.65-3.26 2 0 4.35.83 4.75 3.32h.57c-.09-1.32-.15-2.66-.12-4a12.13 12.13 0 0 0-4.75-.94c-4.6 0-7.58 2.46-7.58 5.29 0 3.49 2.67 4.38 7.58 5.35 2 .4 3.35.86 3.35 3.14 0 2.55-2.37 3.67-4.46 3.67a5.36 5.36 0 0 1-5.61-4.18h-.57c.11 1.49.17 2.94.17 4.43a9.8 9.8 0 0 0 5.2 1.35c5.33 0 7.73-2.69 7.73-5.87.06-3.78-2.71-4.5-6.28-5.21zM131.46 87.78v.4c1.12.18 1.46.41 1.46 1.2v15.28c0 .8-.34 1-1.46 1.2v.4c.6 0 1.78-.17 2.86-.17s2.26.17 2.86.17v-.4c-1.11-.17-1.46-.4-1.46-1.2V89.38c0-.79.35-1 1.46-1.2v-.4c-.6 0-1.77.18-2.86.18s-2.26-.18-2.86-.18zM138.17 88c-.08 1.57-.25 3.12-.45 4.68h.57c.51-2.57 1.32-3.08 2.92-3.08h2.63v14.6c0 1-.34 1.49-1.8 1.66v.4c1.12 0 2.35-.17 3.2-.17s2.09.17 3.2.17v-.4c-1.46-.17-1.8-.69-1.8-1.66V89.56h2.63c1.6 0 2.41.51 2.92 3.08h.57c-.19-1.56-.37-3.11-.45-4.68zM166.85 90.1c.69-1.37 1.06-1.86 2.15-1.92v-.4c-.92 0-1.6.18-2.29.18-.92 0-2.06-.18-2.8-.18v.4c1 .06 1.37.26 1.37.74a2.14 2.14 0 0 1-.2 1l-3.64 7.66-3.88-7.58a2.46 2.46 0 0 1-.34-1.12c0-.46.42-.63 1.34-.66v-.4c-1 0-2 .18-2.95.18s-2-.18-3-.18v.4a2.32 2.32 0 0 1 1.86 1.46l5.15 9.44v5.12c0 1-.34 1.49-1.81 1.66v.4c1.12 0 2.35-.17 3.21-.17s2.09.17 3.2.17v-.4c-1.46-.17-1.8-.69-1.8-1.66v-5.16zM115.24 73.46c16.26 0 26.69-13.88 26.69-28 0-12-7.23-26.69-25.46-26.69-12.73 0-26.94 11.41-26.94 27.51 0 14.86 9.2 27.18 25.71 27.18zm-1.15-49.11c10.43 0 20.28 9.69 20.28 24.06 0 13.06-8.45 19.47-17.16 19.47-12.65 0-20.12-12.08-20.12-23.66 0-15.11 11-19.87 17-19.87z"/><path class="cls-1" d="M176.22 20.07c-2.63 0-5.92-.49-8.05-.49v1.15c2.79.17 3.94.74 3.94 2.14a6.15 6.15 0 0 1-.57 2.79l-10.43 22-11.18-21.84a7.2 7.2 0 0 1-1-3.2c0-1.31 1.23-1.8 3.86-1.89v-1.15c-2.88 0-5.67.49-8.46.49s-5.75-.49-8.71-.49v1.15c3 .5 4 1.81 5.34 4.19L155.77 52v14.7c0 2.8-1 4.27-5.18 4.77v1.14c3.21 0 6.74-.49 9.2-.49s6 .49 9.2.49v-1.12c-4.19-.5-5.18-2-5.18-4.77V52l12.82-25.79c2-3.94 3-5.33 6.16-5.5v-1.13c-2.63 0-4.6.49-6.57.49zM24.23 64.31c0 3.85-1.36 5.89-7.13 6.57v1.58c4.41 0 9.29-.67 12.68-.67s8.25.91 12.67.91c0 0 4.18 0 6.14-.07 1.72 0 5.08-.49 8.2-.49s6.49.49 8.22.49v-1.52c-3.21-.49-4.19-1.15-4.19-3.45v-43h4.43c6.9 0 13.88 1.15 13.88 9 0 7.22-6 10.76-14.53 10.76-.66 0-1.57.32-1.57.81 0 .33.67 1.07 1.65 2.39l10.59 14.2c6.66 9.29 7.48 10.6 8.38 10.84 2 0 4.19-.49 6.32-.49 1.4 0 2.8.49 4.27.49v-1.17c-2.38-.25-4.43-2.3-6.89-5.42L72.23 46.52c7.89-.66 15-5.59 15-14 0-6.82-3.86-12.49-14.78-12.49H48.58v1.16c3.21.49 4.19 1.14 4.19 3.44v40c0 3.94-1.53 5.55-6.12 6.3a17.89 17.89 0 0 1-4.19-.09c-5.77-.68-7.12-2.27-7.13-6.2V6.34h10.42c6.34 0 9.51 2 11.54 12.23h2.27C58.77 12.34 58.09 6.23 57.75 0H1.82C1.47 6.23.79 12.34 0 18.57h2.27C4.3 8.38 7.47 6.34 13.81 6.34h10.42zM167.12 102.74h1.26v3.81h.46v-3.81h1.32v-.46h-3.04v.46zM172.6 105.75l-1.09-3.47h-.73v4.27h.45v-3.62l1.15 3.62h.45l1.14-3.62v3.62h.46v-4.27h-.73l-1.1 3.47z"/></g></g></svg>